<?xml version="1.0" encoding="UTF-8"?>
<svg version="1.1" xmlns="http://www.w3.org/2000/svg" width="512" height="512">
<path d="M0 0 C1.75056209 1.51732852 3.47978996 3.05959913 5.1875 4.625 C6.10015625 5.45644531 7.0128125 6.28789062 7.953125 7.14453125 C27.90702618 26.17876939 41.50860362 53.64967475 42.41726685 81.45773315 C42.48514222 85.87572045 42.446395 90.29135168 42.38423347 94.70922661 C42.3467059 97.63262579 42.33482352 100.55514731 42.33018494 103.47877502 C42.31557855 111.77729027 42.2798557 120.07494175 42.1706543 128.37280273 C42.10524266 133.4815875 42.08872342 138.58858539 42.10336113 143.69774055 C42.0995899 145.63023132 42.0776815 147.56278078 42.0366993 149.49484062 C41.52280609 160.15664721 41.52280609 160.15664721 45.34640503 169.73831177 C47.85096186 172.01585837 50.3326605 173.81835341 53.1875 175.625 C54.54076369 176.76848865 55.87831309 177.93130049 57.1875 179.125 C57.826875 179.681875 58.46625 180.23875 59.125 180.8125 C62.36125077 183.65647795 65.55158668 186.55112701 68.75 189.4375 C70.88167481 191.35054149 73.0276911 193.24387612 75.1875 195.125 C79.08262811 198.51753093 82.91532763 201.97694201 86.75 205.4375 C88.88167481 207.35054149 91.0276911 209.24387612 93.1875 211.125 C96.21504767 213.76189636 99.20687279 216.43516569 102.1875 219.125 C110.46419874 226.64399638 110.46419874 226.64399638 119.1875 233.625 C119.19114563 232.96180756 119.19479126 232.29861511 119.19854736 231.61532593 C119.24040147 224.70429614 119.30976824 217.79392865 119.39501953 210.88330078 C119.42322159 208.30524321 119.44443987 205.72709929 119.45849609 203.14892578 C119.47993509 199.43998025 119.52659396 195.73207207 119.578125 192.0234375 C119.57935364 190.87322113 119.58058228 189.72300476 119.58184814 188.53793335 C119.6959676 182.2836858 119.95909288 178.36945681 124.1875 173.625 C127.43244354 170.73545503 130.91927781 169.37795241 135.25 169.1875 C140.57969786 169.77968865 143.69250984 171.08848233 147.4375 174.9375 C150.91300963 180.27488978 151.47021691 185.29540628 151.37939453 191.53881836 C151.37658981 192.30873611 151.3737851 193.07865387 151.37089539 193.87190247 C151.36442331 195.53498748 151.35386578 197.19806063 151.33963394 198.86109734 C151.32007057 201.49744624 151.31797778 204.13325469 151.32150269 206.76966858 C151.33116779 214.26230809 151.33154558 221.75441335 151.26660156 229.24682617 C151.22807411 233.83830423 151.22851923 238.42838072 151.25417709 243.01992989 C151.25658595 244.76419667 151.24456957 246.5085475 151.21759415 248.25260735 C150.76531419 257.66779704 150.76531419 257.66779704 153.93621826 266.20620728 C155.94029385 267.97657401 157.87422566 269.2995198 160.1875 270.625 C161.85802462 272.12070227 163.52530832 273.62004266 165.1875 275.125 C168.16812721 277.81483431 171.15995233 280.48810364 174.1875 283.125 C178.07493197 286.51082784 181.90232893 289.96062313 185.72265625 293.421875 C187.99059946 295.44900649 190.30069703 297.413203 192.625 299.375 C196.35222397 302.68808797 198.86972682 305.0063881 199.49609375 310.16796875 C199.76312644 316.16406638 199.35492931 319.99452299 195.1875 324.625 C191.15066044 328.17252567 187.60971918 328.93981222 182.23046875 328.83203125 C175.32867827 328.13261462 171.25953351 323.06302932 166.1875 318.625 C165.8575 364.495 165.5275 410.365 165.1875 457.625 C172.7775 457.625 180.3675 457.625 188.1875 457.625 C197.95494186 462.50872093 197.95494186 462.50872093 200.1875 467.625 C200.81795012 472.55265615 200.89824476 476.95474982 198.9375 481.5625 C194.03257042 487.34330986 194.03257042 487.34330986 190.1875 488.625 C187.49921779 488.7224456 184.83696742 488.7625263 182.14857674 488.75642776 C180.89961163 488.75950672 180.89961163 488.75950672 179.62541491 488.76264787 C176.81098182 488.76834154 173.99659729 488.76685771 171.18215942 488.76544189 C169.15373137 488.76802417 167.12530382 488.77103694 165.09687698 488.7744453 C159.50373124 488.78253461 153.91059832 488.78430594 148.31744742 488.78504276 C142.29280485 488.78688994 136.26816899 488.79443551 130.24353027 488.80117798 C116.37437259 488.81548426 102.50521669 488.82128934 88.63605344 488.82586992 C81.78514596 488.82820476 74.93423933 488.83180725 68.08333251 488.8355653 C44.64011067 488.84840083 21.1968893 488.8591206 -2.24633598 488.8625679 C-3.71825675 488.86278954 -5.19017753 488.86301132 -6.6620983 488.86323325 C-8.13760619 488.86345389 -9.61311408 488.86367438 -11.08862197 488.8638947 C-14.04882741 488.86433726 -17.00903285 488.86478437 -19.96923828 488.86523438 C-20.70319843 488.86534377 -21.43715858 488.86545316 -22.19335995 488.86556586 C-46.00126617 488.86919789 -69.80914197 488.88512341 -93.61703654 488.90842474 C-118.77797757 488.93300539 -143.9389012 488.94673989 -169.09985459 488.94793582 C-171.86036373 488.94810728 -174.62087286 488.94832271 -177.38138199 488.94857025 C-178.40098212 488.9486539 -178.40098212 488.9486539 -179.44118023 488.94873925 C-190.39254623 488.94989116 -201.34388107 488.96092491 -212.29523654 488.97545731 C-223.29652341 488.98980387 -234.2977755 488.99281662 -245.29906999 488.98501733 C-251.26213419 488.98109843 -257.22509327 488.98210066 -263.18814468 488.99607468 C-268.64216152 489.00873936 -274.09599343 489.00768192 -279.55000974 488.99548396 C-281.52779042 488.99351402 -283.50558388 488.99666466 -285.48334657 489.00532833 C-288.16309009 489.016328 -290.84217019 489.00899926 -293.52189445 488.9969368 C-294.2972398 489.00453199 -295.07258515 489.01212718 -295.87142581 489.01995254 C-301.72479284 488.96271911 -304.77508437 487.43603612 -309.0625 483.625 C-312.49577393 479.70125836 -312.15413171 475.31993994 -312.08203125 470.3515625 C-311.69077664 466.39365354 -310.58232524 464.46407087 -307.8125 461.625 C-300.77660949 457.10989069 -294.78278611 457.09299142 -286.5625 457.234375 C-285.45003906 457.23840332 -284.33757812 457.24243164 -283.19140625 457.24658203 C-279.06493462 457.26739439 -274.93869947 457.32323928 -270.8125 457.375 C-261.5725 457.4575 -252.3325 457.54 -242.8125 457.625 C-243.1425 436.505 -243.4725 415.385 -243.8125 393.625 C-249.0925 390.985 -254.3725 388.345 -259.8125 385.625 C-290.10983615 360.62234395 -302.81291662 323.36700618 -308.8125 285.625 C-308.98241455 284.55765625 -308.98241455 284.55765625 -309.15576172 283.46875 C-316.82227828 233.0853236 -305.35623899 186.07404606 -283.8125 140.625 C-283.35149902 139.64402344 -282.89049805 138.66304687 -282.41552734 137.65234375 C-271.81399894 115.26191577 -259.21169926 93.79147518 -245.07714844 73.44555664 C-244.20994936 72.19715828 -243.3543678 70.94063286 -242.50878906 69.67749023 C-239.16732035 64.78136324 -236.39582708 62.41507433 -230.8125 60.625 C-225.54395594 59.98914123 -222.22633076 60.68244616 -217.8125 63.625 C-203.1198435 76.79259595 -193.42961006 98.66432836 -183.8125 115.625 C-183.79268066 114.8815332 -183.77286133 114.13806641 -183.75244141 113.37207031 C-182.70871117 75.94770994 -179.57990644 44.35612219 -154.8125 14.625 C-154.33296875 14.01011719 -153.8534375 13.39523438 -153.359375 12.76171875 C-137.29410127 -7.31987341 -111.11268235 -18.41745133 -86.51171875 -22.98828125 C-55.35570324 -26.24535151 -24.81890155 -19.73508673 0 0 Z M-165.8125 347.625 C-166.1528125 348.29144531 -166.493125 348.95789063 -166.84375 349.64453125 C-177.62606864 370.14814249 -191.17288895 383.30519448 -211.8125 393.625 C-211.8125 414.745 -211.8125 435.865 -211.8125 457.625 C-196.3025 457.625 -180.7925 457.625 -164.8125 457.625 C-164.8125 421.325 -164.8125 385.025 -164.8125 347.625 C-165.1425 347.625 -165.4725 347.625 -165.8125 347.625 Z " fill="#9DBC29" transform="translate(311.8125,23.375)"/>
<path d="M0 0 C4.15838162 1.6681187 6.87659497 4.60706604 10.0390625 7.71875 C11.38202071 9.00733612 12.72576199 10.29510667 14.0703125 11.58203125 C14.70710937 12.19643066 15.34390625 12.81083008 16 13.44384766 C18.53911112 15.8702211 21.17945524 18.16598084 23.83984375 20.45703125 C26.16315037 22.47248772 28.44404715 24.53223462 30.7265625 26.59375 C33.70718971 29.28358431 36.69901483 31.95685364 39.7265625 34.59375 C43.62169061 37.98628093 47.45439013 41.44569201 51.2890625 44.90625 C53.42073731 46.81929149 55.5667536 48.71262612 57.7265625 50.59375 C61.62169061 53.98628093 65.45439013 57.44569201 69.2890625 60.90625 C71.42073731 62.81929149 73.5667536 64.71262612 75.7265625 66.59375 C79.62169061 69.98628093 83.45439013 73.44569201 87.2890625 76.90625 C89.42073731 78.81929149 91.5667536 80.71262612 93.7265625 82.59375 C97.62169061 85.98628093 101.45439013 89.44569201 105.2890625 92.90625 C107.42073731 94.81929149 109.5667536 96.71262612 111.7265625 98.59375 C115.62169061 101.98628093 119.45439013 105.44569201 123.2890625 108.90625 C125.42073731 110.81929149 127.5667536 112.71262612 129.7265625 114.59375 C133.62169061 117.98628093 137.45439013 121.44569201 141.2890625 124.90625 C144.05123369 127.38512158 146.84408656 129.82630147 149.64453125 132.26171875 C152.97531615 135.1925595 156.2494341 138.18603948 159.52734375 141.17578125 C161.77478769 143.21894492 161.77478769 143.21894492 164.7265625 145.09375 C165.09570599 147.57312965 165.09570599 147.57312965 165.08732605 150.76309204 C165.09145854 151.96655085 165.09559103 153.17000965 165.09984875 154.4099369 C165.08920765 155.755878 165.07829395 157.10181697 165.06713867 158.44775391 C165.06622006 159.87975732 165.06661947 161.31176208 165.06823444 162.74376488 C165.06891319 166.58707858 165.05149546 170.43011344 165.03040314 174.27336121 C165.01334881 177.87650455 165.01251547 181.47957924 165.01037598 185.08276367 C164.99461883 195.62812955 164.95273555 206.17344327 164.9140625 216.71875 C164.8521875 240.2725 164.7903125 263.82625 164.7265625 288.09375 C98.7265625 288.09375 32.7265625 288.09375 -35.2734375 288.09375 C-35.5234375 222.46875 -35.5234375 222.46875 -35.57128906 201.75146484 C-35.60451112 195.62029952 -35.60451112 195.62029952 -35.64300537 189.48916626 C-35.65761603 186.7591965 -35.66586946 184.02990294 -35.66497803 181.29995728 C-35.66406152 177.16369915 -35.69469878 173.02821761 -35.72753906 168.89208984 C-35.72000296 167.06953706 -35.72000296 167.06953706 -35.71231461 165.21016502 C-35.79074343 158.91281785 -35.90732833 154.81279387 -40.2734375 150.09375 C-46.83818228 145.80091456 -54.51873633 146.62046588 -62.11328125 146.625 C-63.56385081 146.61788816 -65.0144176 146.61018769 -66.46498108 146.60192871 C-69.49683464 146.58852518 -72.52842795 146.58689661 -75.56030273 146.59277344 C-79.4283936 146.59866914 -83.29522913 146.56806618 -87.16307735 146.52765656 C-90.15644451 146.50169585 -93.14951257 146.49890955 -96.14297676 146.50254822 C-97.56822428 146.5008651 -98.99348683 146.49130093 -100.41862297 146.47340393 C-110.61066826 146.35579974 -110.61066826 146.35579974 -119.7568512 150.33728027 C-125.20276581 156.64459303 -124.71542072 163.82104964 -124.70581055 171.73022461 C-124.7160022 172.9894574 -124.72619385 174.24869019 -124.73669434 175.54608154 C-124.76416738 178.98153117 -124.77353553 182.41681528 -124.77954841 185.85236049 C-124.7889575 189.44921162 -124.81516284 193.04594034 -124.83955383 196.64271545 C-124.88315305 203.44586526 -124.9117403 210.24899123 -124.93487722 217.05223805 C-124.96196427 224.80081215 -125.00587354 232.54926271 -125.05116594 240.29774845 C-125.14391801 256.22969921 -125.21342142 272.16163717 -125.2734375 288.09375 C-138.4734375 288.09375 -151.6734375 288.09375 -165.2734375 288.09375 C-165.29622838 273.74811802 -165.31448929 259.40249849 -165.32524967 245.05685234 C-165.33035221 238.39222375 -165.3374076 231.7276099 -165.34887695 225.06298828 C-165.37145161 211.28606257 -165.36906855 197.51001283 -165.29920387 183.73321152 C-165.2729951 177.92851313 -165.28298383 172.1278846 -165.36920643 166.32376671 C-165.39659757 164.14371004 -165.40328595 161.96490207 -165.39952087 159.78469849 C-165.39636207 157.37386116 -165.42722036 154.96253568 -165.50489807 152.552948 C-165.44659177 147.85804954 -165.17197391 145.17455199 -162.11257935 141.49456787 C-159.59129204 139.19558624 -157.00738154 137.13210159 -154.2734375 135.09375 C-152.92979231 133.93897449 -151.59420903 132.77461894 -150.2734375 131.59375 C-149.6340625 131.036875 -148.9946875 130.48 -148.3359375 129.90625 C-145.96379321 127.82163836 -143.61787685 125.70946356 -141.2734375 123.59375 C-137.65667405 120.32984152 -134.00954142 117.10584051 -130.3359375 113.90625 C-127.96379321 111.82163836 -125.61787685 109.70946356 -123.2734375 107.59375 C-119.65667405 104.32984152 -116.00954142 101.10584051 -112.3359375 97.90625 C-109.96379321 95.82163836 -107.61787685 93.70946356 -105.2734375 91.59375 C-101.65667405 88.32984152 -98.00954142 85.10584051 -94.3359375 81.90625 C-91.96379321 79.82163836 -89.61787685 77.70946356 -87.2734375 75.59375 C-83.65667405 72.32984152 -80.00954142 69.10584051 -76.3359375 65.90625 C-73.96379321 63.82163836 -71.61787685 61.70946356 -69.2734375 59.59375 C-65.65667405 56.32984152 -62.00954142 53.10584051 -58.3359375 49.90625 C-55.96379321 47.82163836 -53.61787685 45.70946356 -51.2734375 43.59375 C-47.65667405 40.32984152 -44.00954142 37.10584051 -40.3359375 33.90625 C-37.96379321 31.82163836 -35.61787685 29.70946356 -33.2734375 27.59375 C-29.65667405 24.32984152 -26.00954142 21.10584051 -22.3359375 17.90625 C-19.96379321 15.82163836 -17.61787685 13.70946356 -15.2734375 11.59375 C-14.01466797 10.46839844 -14.01466797 10.46839844 -12.73046875 9.3203125 C-11.14265763 7.88143756 -9.57565566 6.41910578 -8.03515625 4.9296875 C-7.35066406 4.28257812 -6.66617188 3.63546875 -5.9609375 2.96875 C-5.36667969 2.38867188 -4.77242187 1.80859375 -4.16015625 1.2109375 C-2.2734375 0.09375 -2.2734375 0.09375 0 0 Z " fill="#FCE3C2" transform="translate(312.2734375,193.90625)"/>
<path d="M0 0 C1.75056209 1.51732852 3.47978996 3.05959913 5.1875 4.625 C6.10015625 5.45644531 7.0128125 6.28789062 7.953125 7.14453125 C27.90702618 26.17876939 41.50860362 53.64967475 42.41726685 81.45773315 C42.48514222 85.87572045 42.446395 90.29135168 42.38423347 94.70922661 C42.3467059 97.63262579 42.33482352 100.55514731 42.33018494 103.47877502 C42.31557855 111.77729027 42.2798557 120.07494175 42.1706543 128.37280273 C42.10524266 133.4815875 42.08872342 138.58858539 42.10336113 143.69774055 C42.0995899 145.63023132 42.0776815 147.56278078 42.0366993 149.49484062 C41.52280609 160.15664721 41.52280609 160.15664721 45.34640503 169.73831177 C47.85096186 172.01585837 50.3326605 173.81835341 53.1875 175.625 C54.54076369 176.76848865 55.87831309 177.93130049 57.1875 179.125 C57.826875 179.681875 58.46625 180.23875 59.125 180.8125 C62.36125077 183.65647795 65.55158668 186.55112701 68.75 189.4375 C70.88167481 191.35054149 73.0276911 193.24387612 75.1875 195.125 C79.08262811 198.51753093 82.91532763 201.97694201 86.75 205.4375 C88.88167481 207.35054149 91.0276911 209.24387612 93.1875 211.125 C96.21504767 213.76189636 99.20687279 216.43516569 102.1875 219.125 C110.46419874 226.64399638 110.46419874 226.64399638 119.1875 233.625 C119.19114563 232.96180756 119.19479126 232.29861511 119.19854736 231.61532593 C119.24040147 224.70429614 119.30976824 217.79392865 119.39501953 210.88330078 C119.42322159 208.30524321 119.44443987 205.72709929 119.45849609 203.14892578 C119.47993509 199.43998025 119.52659396 195.73207207 119.578125 192.0234375 C119.57935364 190.87322113 119.58058228 189.72300476 119.58184814 188.53793335 C119.6959676 182.2836858 119.95909288 178.36945681 124.1875 173.625 C127.43244354 170.73545503 130.91927781 169.37795241 135.25 169.1875 C140.57969786 169.77968865 143.69250984 171.08848233 147.4375 174.9375 C150.91300963 180.27488978 151.47021691 185.29540628 151.37939453 191.53881836 C151.37658981 192.30873611 151.3737851 193.07865387 151.37089539 193.87190247 C151.36442331 195.53498748 151.35386578 197.19806063 151.33963394 198.86109734 C151.32007057 201.49744624 151.31797778 204.13325469 151.32150269 206.76966858 C151.33116779 214.26230809 151.33154558 221.75441335 151.26660156 229.24682617 C151.22807411 233.83830423 151.22851923 238.42838072 151.25417709 243.01992989 C151.25658595 244.76419667 151.24456957 246.5085475 151.21759415 248.25260735 C150.76531419 257.66779704 150.76531419 257.66779704 153.93621826 266.20620728 C155.94029385 267.97657401 157.87422566 269.2995198 160.1875 270.625 C161.85802462 272.12070227 163.52530832 273.62004266 165.1875 275.125 C168.16812721 277.81483431 171.15995233 280.48810364 174.1875 283.125 C178.07493197 286.51082784 181.90232893 289.96062313 185.72265625 293.421875 C187.99059946 295.44900649 190.30069703 297.413203 192.625 299.375 C196.35222397 302.68808797 198.86972682 305.0063881 199.49609375 310.16796875 C199.76312644 316.16406638 199.35492931 319.99452299 195.1875 324.625 C191.15093417 328.17228512 187.60666755 328.94550911 182.2265625 328.828125 C174.31487836 328.03998788 168.15726574 320.60463207 162.8359375 315.265625 C159.74771479 312.18651209 156.57398841 309.21318222 153.375 306.25 C152.75334961 305.6734668 152.13169922 305.09693359 151.49121094 304.50292969 C147.74759272 301.04081592 143.96948774 297.62910907 140.109375 294.296875 C137.77644926 292.26741927 135.48238755 290.197353 133.1875 288.125 C130.20687279 285.43516569 127.21504767 282.76189636 124.1875 280.125 C120.29237189 276.73246907 116.45967237 273.27305799 112.625 269.8125 C110.49332519 267.89945851 108.3473089 266.00612388 106.1875 264.125 C102.29237189 260.73246907 98.45967237 257.27305799 94.625 253.8125 C92.49332519 251.89945851 90.3473089 250.00612388 88.1875 248.125 C84.29237189 244.73246907 80.45967237 241.27305799 76.625 237.8125 C74.49332519 235.89945851 72.3473089 234.00612388 70.1875 232.125 C66.29237189 228.73246907 62.45967237 225.27305799 58.625 221.8125 C56.49332519 219.89945851 54.3473089 218.00612388 52.1875 216.125 C48.29237189 212.73246907 44.45967237 209.27305799 40.625 205.8125 C38.49332519 203.89945851 36.3473089 202.00612388 34.1875 200.125 C30.29237189 196.73246907 26.45967237 193.27305799 22.625 189.8125 C19.86311014 187.33388089 17.075264 184.88851306 14.26171875 182.46875 C12.68769537 181.06961811 11.15556576 179.62318365 9.64453125 178.15625 C8.77183594 177.3209375 7.89914062 176.485625 7 175.625 C6.20207031 174.84125 5.40414062 174.0575 4.58203125 173.25 C2.34101168 171.42930786 2.34101168 171.42930786 -0.1875 171.4921875 C-4.05620373 173.16171738 -6.64425336 175.82095194 -9.625 178.75 C-10.8755528 179.94609638 -12.126849 181.14141604 -13.37890625 182.3359375 C-13.97461426 182.90924805 -14.57032227 183.48255859 -15.18408203 184.07324219 C-17.09725531 185.89635004 -19.0618921 187.64850402 -21.0625 189.375 C-24.01311765 191.92211438 -26.91948786 194.51252237 -29.8125 197.125 C-33.42926345 200.38890848 -37.07639608 203.61290949 -40.75 206.8125 C-43.12214429 208.89711164 -45.46806065 211.00928644 -47.8125 213.125 C-51.42926345 216.38890848 -55.07639608 219.61290949 -58.75 222.8125 C-61.12214429 224.89711164 -63.46806065 227.00928644 -65.8125 229.125 C-69.42926345 232.38890848 -73.07639608 235.61290949 -76.75 238.8125 C-79.12214429 240.89711164 -81.46806065 243.00928644 -83.8125 245.125 C-87.42926345 248.38890848 -91.07639608 251.61290949 -94.75 254.8125 C-97.12214429 256.89711164 -99.46806065 259.00928644 -101.8125 261.125 C-105.42926345 264.38890848 -109.07639608 267.61290949 -112.75 270.8125 C-115.12214429 272.89711164 -117.46806065 275.00928644 -119.8125 277.125 C-123.42926345 280.38890848 -127.07639608 283.61290949 -130.75 286.8125 C-133.12214429 288.89711164 -135.46806065 291.00928644 -137.8125 293.125 C-141.42926345 296.38890848 -145.07639608 299.61290949 -148.75 302.8125 C-151.12214429 304.89711164 -153.46806065 307.00928644 -155.8125 309.125 C-176.89166683 328.10914261 -176.89166683 328.10914261 -186.9765625 328.04296875 C-191.44825386 327.38391782 -194.06739985 325.11439844 -196.8125 321.625 C-198.52725946 318.77284116 -199.12923081 316.57134377 -199.1875 313.25 C-199.21585937 312.52039063 -199.24421875 311.79078125 -199.2734375 311.0390625 C-198.04915525 304.62714358 -192.69853971 300.35770568 -188.0625 296.1875 C-187.12325684 295.32946777 -187.12325684 295.32946777 -186.16503906 294.45410156 C-182.39616839 291.02128364 -178.59339646 287.62816703 -174.734375 284.296875 C-172.40144926 282.26741927 -170.10738755 280.197353 -167.8125 278.125 C-164.83187279 275.43516569 -161.84004767 272.76189636 -158.8125 270.125 C-158.1834375 269.5475 -157.554375 268.97 -156.90625 268.375 C-154.8125 266.625 -154.8125 266.625 -152.09375 265 C-148.17819183 262.36029787 -145.30360195 260.09018913 -144.34179688 255.26220703 C-143.74691515 248.36232885 -144.25893031 241.51164248 -144.8125 234.625 C-144.90411622 233.08466332 -144.99530599 231.54430118 -145.0859375 230.00390625 C-146.97597519 204.31870371 -155.83185569 178.57015074 -166.0625 155.125 C-166.51616943 154.0829541 -166.96983887 153.0409082 -167.43725586 151.96728516 C-169.77762505 146.73080558 -172.27300095 141.72815381 -175.21875 136.8046875 C-185.06056402 120.00020804 -184.76719376 106.3797041 -182.8125 87.625 C-182.66487585 85.66206499 -182.52472403 83.69854317 -182.39453125 81.734375 C-180.54558215 56.11322325 -171.18283974 34.27617229 -154.8125 14.625 C-154.09320313 13.70267578 -154.09320313 13.70267578 -153.359375 12.76171875 C-137.29410127 -7.31987341 -111.11268235 -18.41745133 -86.51171875 -22.98828125 C-55.35570324 -26.24535151 -24.81890155 -19.73508673 0 0 Z " fill="#D9D93A" transform="translate(311.8125,23.375)"/>
<path d="M0 0 C1.44913918 -0.00083022 2.89827825 -0.00329538 4.34741211 -0.00730896 C7.37350056 -0.0101558 10.3988443 0.00442306 13.42480469 0.03198242 C17.28494262 0.06606461 21.14375038 0.06003708 25.00395203 0.04131985 C27.99307148 0.03070248 30.98188656 0.0397302 33.97097778 0.05470467 C35.39339288 0.05985234 36.81584022 0.05944658 38.23825073 0.05315971 C53.88436564 0.00995289 53.88436564 0.00995289 59.0625 4.62890625 C64.25908223 10.22481407 63.60356575 16.09375362 63.51660156 23.42724609 C63.51718567 24.71559357 63.51776978 26.00394104 63.51837158 27.33132935 C63.51951622 30.85174813 63.49604839 34.37161842 63.46807575 37.89191008 C63.44301981 41.57542334 63.44071681 45.25895007 63.43597412 48.9425354 C63.42355659 55.91231882 63.39075177 62.88185038 63.35057616 69.85152304 C63.30582019 77.78859766 63.28386183 85.7256845 63.26379442 93.66285396 C63.22201786 109.98501867 63.15168988 126.30693029 63.0625 142.62890625 C64.20440796 142.62006535 65.34631592 142.61122444 66.52282715 142.60211563 C94.30667071 142.38793378 122.09059987 142.19701898 149.87477112 142.03050613 C152.54948983 142.01439591 155.22420801 141.99819902 157.89892578 141.98193359 C158.56373439 141.97789374 159.228543 141.97385388 159.91349733 141.9696916 C170.67172295 141.90389696 181.42979739 141.82383875 192.18788362 141.73848966 C203.23033183 141.65120283 214.27280226 141.57959163 225.31544304 141.52158523 C231.51641859 141.48851633 237.71716458 141.44834175 243.91796875 141.39118195 C249.75534657 141.33759634 255.59253049 141.30298871 261.43011665 141.28287697 C263.57150478 141.27216475 265.71287133 141.25454395 267.85413933 141.22945976 C270.78119076 141.19620994 273.70730545 141.18797648 276.63452148 141.18585205 C277.47890022 141.17030974 278.32327896 141.15476742 279.19324493 141.13875413 C284.93538587 141.17121098 289.25829584 142.42260965 294.0625 145.62890625 C297.64657762 149.30258581 298.33265703 152.21127941 298.5 157.19140625 C298.27602708 162.89113079 296.81546225 165.65682372 293.0625 169.87890625 C289.16927644 173.28547686 284.9127221 172.77142491 280.02357674 172.76033401 C278.77461163 172.76341297 278.77461163 172.76341297 277.50041491 172.76655412 C274.68598182 172.77224779 271.87159729 172.77076396 269.05715942 172.76934814 C267.02873137 172.77193042 265.00030382 172.77494319 262.97187698 172.77835155 C257.37873124 172.78644086 251.78559832 172.78821219 246.19244742 172.78894901 C240.16780485 172.79079619 234.14316899 172.79834176 228.11853027 172.80508423 C214.24937259 172.81939051 200.38021669 172.82519559 186.51105344 172.82977617 C179.66014596 172.83211101 172.80923933 172.8357135 165.95833251 172.83947155 C142.51511067 172.85230708 119.0718893 172.86302685 95.62866402 172.86647415 C94.15674325 172.86669579 92.68482247 172.86691757 91.2129017 172.8671395 C89.73739381 172.86736014 88.26188592 172.86758063 86.78637803 172.86780095 C83.82617259 172.86824351 80.86596715 172.86869062 77.90576172 172.86914062 C77.17180157 172.86925002 76.43784142 172.86935941 75.68164005 172.86947211 C51.87373383 172.87310414 28.06585803 172.88902966 4.25796346 172.91233099 C-20.90297757 172.93691164 -46.0639012 172.95064614 -71.22485459 172.95184207 C-73.98536373 172.95201353 -76.74587286 172.95222896 -79.50638199 172.9524765 C-80.52598212 172.95256015 -80.52598212 172.95256015 -81.56618023 172.9526455 C-92.51754623 172.95379741 -103.46888107 172.96483116 -114.42023654 172.97936356 C-125.42152341 172.99371012 -136.4227755 172.99672287 -147.42406999 172.98892358 C-153.38713419 172.98500468 -159.35009327 172.98600691 -165.31314468 172.99998093 C-170.76716152 173.01264561 -176.22099343 173.01158817 -181.67500974 172.99939021 C-183.65279042 172.99742027 -185.63058388 173.00057091 -187.60834657 173.00923458 C-190.28809009 173.02023425 -192.96717019 173.01290551 -195.64689445 173.00084305 C-196.4222398 173.00843824 -197.19758515 173.01603343 -197.99642581 173.02385879 C-203.84979284 172.96662536 -206.90008437 171.43994237 -211.1875 167.62890625 C-214.62077393 163.70516461 -214.27913171 159.32384619 -214.20703125 154.35546875 C-213.81577664 150.39755979 -212.70732524 148.46797712 -209.9375 145.62890625 C-203.03790265 141.25945956 -197.31538771 141.07092081 -189.27148438 141.15893555 C-187.39101158 141.15564995 -187.39101158 141.15564995 -185.47254944 141.15229797 C-182.04238906 141.15038675 -178.61320019 141.16627492 -175.18318367 141.19039893 C-171.54641672 141.21190598 -167.90964758 141.21111099 -164.27282715 141.21308899 C-158.13280108 141.21953745 -151.99297397 141.24073607 -145.85302734 141.2722168 C-137.34446985 141.31579994 -128.83603198 141.33180347 -120.32737923 141.34251761 C-89.18866148 141.3860882 -58.0614512 141.57683684 -26.9375 142.62890625 C-26.94118717 141.97144913 -26.94487434 141.313992 -26.94867325 140.63661194 C-27.03711393 124.61939728 -27.10325306 108.60226786 -27.14474869 92.58486938 C-27.16535044 84.83887956 -27.19342509 77.09305299 -27.23925781 69.34716797 C-27.27919902 62.59373264 -27.30495017 55.84041559 -27.31385398 49.08686543 C-27.31905649 45.51276821 -27.33123371 41.93900927 -27.36042023 38.36502075 C-27.39278274 34.36949835 -27.39345477 30.37455939 -27.39160156 26.37890625 C-27.40598267 25.20142319 -27.42036377 24.02394012 -27.43518066 22.81077576 C-27.40247428 16.28917751 -26.92013115 10.98515156 -22.9375 5.62890625 C-16.42602497 -0.71601404 -8.61031525 -0.0896584 0 0 Z " fill="#DAD93C" transform="translate(213.9375,339.37109375)"/>
<path d="M0 0 C0 94.71 0 189.42 0 287 C-11.22 287 -22.44 287 -34 287 C-34.0093457 283.16439453 -34.01869141 279.32878906 -34.02832031 275.37695312 C-34.06209635 262.70023908 -34.1174484 250.02369613 -34.18390274 237.34711456 C-34.22366551 229.66174482 -34.25607196 221.97647706 -34.27099609 214.29101562 C-34.28402702 207.59020209 -34.31102815 200.88961321 -34.35461307 194.18892622 C-34.37719585 190.64285752 -34.39291262 187.09706557 -34.39188385 183.55091858 C-34.39099603 179.58644945 -34.42130607 175.62254351 -34.45410156 171.65820312 C-34.4490712 170.4900708 -34.44404083 169.32193848 -34.43885803 168.1184082 C-34.52108126 161.68839144 -34.99179448 156.25174466 -39 151 C-45.51947403 145.55755354 -53.88138156 146.39798678 -61.9375 146.43359375 C-63.38664141 146.42834936 -64.8357794 146.42206991 -66.28491211 146.41481018 C-69.31087394 146.40444469 -72.33636436 146.40891189 -75.36230469 146.42358398 C-79.22257165 146.44077826 -83.0813509 146.4172508 -86.94145203 146.38209438 C-89.93055918 146.36004014 -92.91931457 146.36158078 -95.90847778 146.3698597 C-97.33091872 146.37067462 -98.75338668 146.36389961 -100.17575073 146.34908867 C-107.30747105 146.28618976 -113.39490027 146.2371766 -119.48217773 150.24476624 C-124.93208862 156.54712971 -124.44197996 163.72998451 -124.43237305 171.63647461 C-124.4425647 172.8957074 -124.45275635 174.15494019 -124.46325684 175.45233154 C-124.49072988 178.88778117 -124.50009803 182.32306528 -124.50611091 185.75861049 C-124.51552 189.35546162 -124.54172534 192.95219034 -124.56611633 196.54896545 C-124.60971555 203.35211526 -124.6383028 210.15524123 -124.66143972 216.95848805 C-124.68852677 224.70706215 -124.73243604 232.45551271 -124.77772844 240.20399845 C-124.87048051 256.13594921 -124.93998392 272.06788717 -125 288 C-138.2 288 -151.4 288 -165 288 C-165.02279088 273.65436802 -165.04105179 259.30874849 -165.05181217 244.96310234 C-165.05691471 238.29847375 -165.0639701 231.6338599 -165.07543945 224.96923828 C-165.09801411 211.19231257 -165.09563105 197.41626283 -165.02576637 183.63946152 C-164.9995576 177.83476313 -165.00954633 172.0341346 -165.09576893 166.23001671 C-165.12316007 164.04996004 -165.12984845 161.87115207 -165.12608337 159.69094849 C-165.12292457 157.28011116 -165.15378286 154.86878568 -165.23146057 152.459198 C-165.17315427 147.76429954 -164.89853641 145.08080199 -161.83914185 141.40081787 C-159.31785454 139.10183624 -156.73394404 137.03835159 -154 135 C-152.65635481 133.84522449 -151.32077153 132.68086894 -150 131.5 C-149.360625 130.943125 -148.72125 130.38625 -148.0625 129.8125 C-145.69035571 127.72788836 -143.34443935 125.61571356 -141 123.5 C-137.38323655 120.23609152 -133.73610392 117.01209051 -130.0625 113.8125 C-127.69035571 111.72788836 -125.34443935 109.61571356 -123 107.5 C-119.38323655 104.23609152 -115.73610392 101.01209051 -112.0625 97.8125 C-109.69035571 95.72788836 -107.34443935 93.61571356 -105 91.5 C-101.38323655 88.23609152 -97.73610392 85.01209051 -94.0625 81.8125 C-91.69035571 79.72788836 -89.34443935 77.61571356 -87 75.5 C-83.38323655 72.23609152 -79.73610392 69.01209051 -76.0625 65.8125 C-73.69035571 63.72788836 -71.34443935 61.61571356 -69 59.5 C-65.38323655 56.23609152 -61.73610392 53.01209051 -58.0625 49.8125 C-55.69035571 47.72788836 -53.34443935 45.61571356 -51 43.5 C-47.38323655 40.23609152 -43.73610392 37.01209051 -40.0625 33.8125 C-37.69035571 31.72788836 -35.34443935 29.61571356 -33 27.5 C-29.38323655 24.23609152 -25.73610392 21.01209051 -22.0625 17.8125 C-19.69035571 15.72788836 -17.34443935 13.61571356 -15 11.5 C-14.1646875 10.74847656 -13.329375 9.99695313 -12.46875 9.22265625 C-10.8614652 7.7755913 -9.25713732 6.32523307 -7.65625 4.87109375 C-6.9446875 4.23300781 -6.233125 3.59492188 -5.5 2.9375 C-4.55640625 2.08478516 -4.55640625 2.08478516 -3.59375 1.21484375 C-2 0 -2 0 0 0 Z " fill="#FEF1DD" transform="translate(312,194)"/>
<path d="M0 0 C15.26516787 0 15.26516787 0 22.875 1.625 C24.15552246 1.89340698 24.15552246 1.89340698 25.46191406 2.16723633 C43.82512678 6.24241205 61.1394609 15.29450582 75 28 C75.91265625 28.83144531 76.8253125 29.66289062 77.765625 30.51953125 C97.8131938 49.64311992 111.17369851 77.00737209 112.25961304 104.89453125 C112.38063655 110.34679019 112.33865963 115.79705847 112.29296875 121.25 C112.28735822 123.24495115 112.28309503 125.23990649 112.28010559 127.23486328 C112.26877137 132.42976743 112.23940558 137.62441109 112.20599365 142.81921387 C112.17504335 148.14246093 112.16154746 153.46575098 112.14648438 158.7890625 C112.11452245 169.1928214 112.06346825 179.59638886 112 190 C110.88701101 189.04842006 109.77436635 188.09643738 108.66186523 187.14428711 C108.04222397 186.6141954 107.4225827 186.0841037 106.78416443 185.53794861 C104.51252737 183.5797989 102.2841272 181.57712034 100.0625 179.5625 C85.73578025 164.76144341 85.73578025 164.76144341 67.37890625 158.61328125 C62.91895104 159.3382986 60.25384987 162.01730429 57 165 C56.50951172 165.44520996 56.01902344 165.89041992 55.51367188 166.34912109 C52.69082372 168.91465187 49.89030956 171.50266037 47.10546875 174.109375 C44.11359857 176.90598628 41.05394534 179.61332309 37.95703125 182.29296875 C35.6144085 184.33633431 33.30726578 186.41680859 31 188.5 C25.67665307 193.29907792 20.31136661 198.0407795 14.84765625 202.6796875 C8.26457868 208.27738522 1.77987412 213.93608578 -4.47338867 219.90307617 C-8.09306192 223.31418419 -11.9041015 226.17541918 -16 229 C-15.84724609 227.31197266 -15.84724609 227.31197266 -15.69140625 225.58984375 C-15.37465905 218.46693264 -15.35261292 212.38903309 -20.16015625 206.74609375 C-23.3499954 203.47192739 -26.76912365 200.46953189 -30.25634766 197.51708984 C-32.31504365 195.72589173 -34.07792503 193.79166964 -35.8125 191.6875 C-39.23060168 187.61960295 -43.03613698 183.97749767 -46.86328125 180.296875 C-51.12005191 175.7210411 -51.55141342 171.89226967 -51.453125 165.765625 C-50.73048594 161.35503488 -48.45385856 158.71714102 -45 156 C-41.16198051 153.72165377 -37.38358506 153.27460247 -33 154 C-28.27528482 156.02140725 -25.1740568 158.49456252 -21.625 162.1875 C-20.75101563 163.08855469 -19.87703125 163.98960937 -18.9765625 164.91796875 C-18.32429688 165.60503906 -17.67203125 166.29210937 -17 167 C-16.99635437 166.41419662 -16.99270874 165.82839325 -16.98895264 165.22483826 C-16.94702851 159.10839666 -16.87761371 152.99269853 -16.79248047 146.87670898 C-16.76431589 144.59651132 -16.743079 142.31621684 -16.72900391 140.03588867 C-16.70751252 136.75128782 -16.66082828 133.46784545 -16.609375 130.18359375 C-16.60814636 129.16978134 -16.60691772 128.15596893 -16.60565186 127.11143494 C-16.47773988 120.88101764 -15.64483447 117.10096367 -12 112 C-8.28369507 108.68276137 -5.01102092 108 0 108 C0 72.36 0 36.72 0 0 Z " fill="#9DBC29" transform="translate(242,0)"/>
<path d="M0 0 C0 110.22 0 220.44 0 334 C-17.0118001 334 -29.09926195 328.83131341 -41.2265625 316.8671875 C-65.16501886 292.11954389 -75.69967378 258.3431394 -81 225 C-81.11327637 224.2884375 -81.22655273 223.576875 -81.34326172 222.84375 C-89.00977828 172.4603236 -77.54373899 125.44904606 -56 80 C-55.53899902 79.01902344 -55.07799805 78.03804688 -54.60302734 77.02734375 C-44.00247743 54.63898233 -31.40445043 33.1599959 -17.26367188 12.82055664 C-16.39796873 11.57334869 -15.54569424 10.31674264 -14.70507812 9.05249023 C-12.4333443 5.70601822 -10.61657299 3.21319397 -6.875 1.5625 C-6.21242188 1.25441406 -5.54984375 0.94632812 -4.8671875 0.62890625 C-3 0 -3 0 0 0 Z " fill="#DADA3A" transform="translate(84,84)"/>
<path d="M0 0 C5.06651216 2.0526926 8.50902788 5.01819475 12.375 8.75 C13.52403134 9.83538568 14.67376792 10.92002526 15.82421875 12.00390625 C16.64672119 12.78338623 16.64672119 12.78338623 17.48583984 13.57861328 C19.94417311 15.8863231 22.49101507 18.08632354 25.04296875 20.2890625 C27.39473854 22.34510076 29.69367055 24.4556558 32 26.5625 C34.84964177 29.13971774 37.68899363 31.57672702 40.8125 33.8125 C45.87680397 37.49002702 50.3304282 41.84255578 54.89453125 46.109375 C57.88640143 48.90598628 60.94605466 51.61332309 64.04296875 54.29296875 C66.3855915 56.33633431 68.69273422 58.41680859 71 60.5 C73.98062721 63.18983431 76.97245233 65.86310364 80 68.5 C83.89512811 71.89253093 87.72782763 75.35194201 91.5625 78.8125 C94.32467119 81.29137158 97.11752406 83.73255147 99.91796875 86.16796875 C103.24875365 89.0988095 106.5228716 92.09228948 109.80078125 95.08203125 C112.04822519 97.12519492 112.04822519 97.12519492 115 99 C115.00364563 98.33680756 115.00729126 97.67361511 115.01104736 96.99032593 C115.05290147 90.07929614 115.12226824 83.16892865 115.20751953 76.25830078 C115.23572159 73.68024321 115.25693987 71.10209929 115.27099609 68.52392578 C115.29243509 64.81498025 115.33909396 61.10707207 115.390625 57.3984375 C115.39185364 56.24822113 115.39308228 55.09800476 115.39434814 53.91293335 C115.5084676 47.6586858 115.77159288 43.74445681 120 39 C123.24494354 36.11045503 126.73177781 34.75295241 131.0625 34.5625 C136.39219786 35.15468865 139.50500984 36.46348233 143.25 40.3125 C146.72550963 45.64988978 147.28271691 50.67040628 147.19189453 56.91381836 C147.18908981 57.68373611 147.1862851 58.45365387 147.18339539 59.24690247 C147.17692331 60.90998748 147.16636578 62.57306063 147.15213394 64.23609734 C147.13257057 66.87244624 147.13047778 69.50825469 147.13400269 72.14466858 C147.14366779 79.63730809 147.14404558 87.12941335 147.07910156 94.62182617 C147.04057411 99.21330423 147.04101923 103.80338072 147.06667709 108.39492989 C147.06908595 110.13919667 147.05706957 111.8835475 147.03009415 113.62760735 C146.57781419 123.04279704 146.57781419 123.04279704 149.74871826 131.58120728 C151.75279385 133.35157401 153.68672566 134.6745198 156 136 C157.67052462 137.49570227 159.33780832 138.99504266 161 140.5 C163.98062721 143.18983431 166.97245233 145.86310364 170 148.5 C173.88743197 151.88582784 177.71482893 155.33562313 181.53515625 158.796875 C183.80309946 160.82400649 186.11319703 162.788203 188.4375 164.75 C192.16472397 168.06308797 194.68222682 170.3813881 195.30859375 175.54296875 C195.57562644 181.53906638 195.16742931 185.36952299 191 190 C186.96343417 193.54728512 183.41916755 194.32050911 178.0390625 194.203125 C170.12737836 193.41498788 163.96976574 185.97963207 158.6484375 180.640625 C155.56021479 177.56151209 152.38648841 174.58818222 149.1875 171.625 C148.56584961 171.0484668 147.94419922 170.47193359 147.30371094 169.87792969 C143.56009272 166.41581592 139.78198774 163.00410907 135.921875 159.671875 C133.58894926 157.64241927 131.29488755 155.572353 129 153.5 C126.01937279 150.81016569 123.02754767 148.13689636 120 145.5 C116.10487189 142.10746907 112.27217237 138.64805799 108.4375 135.1875 C106.30582519 133.27445851 104.1598089 131.38112388 102 129.5 C98.10487189 126.10746907 94.27217237 122.64805799 90.4375 119.1875 C88.30582519 117.27445851 86.1598089 115.38112388 84 113.5 C80.10487189 110.10746907 76.27217237 106.64805799 72.4375 103.1875 C70.30582519 101.27445851 68.1598089 99.38112388 66 97.5 C62.10487189 94.10746907 58.27217237 90.64805799 54.4375 87.1875 C52.30582519 85.27445851 50.1598089 83.38112388 48 81.5 C44.10487189 78.10746907 40.27217237 74.64805799 36.4375 71.1875 C34.30582519 69.27445851 32.1598089 67.38112388 30 65.5 C26.10487189 62.10746907 22.27217237 58.64805799 18.4375 55.1875 C15.67561014 52.70888089 12.887764 50.26351306 10.07421875 47.84375 C8.50019537 46.44461811 6.96806576 44.99818365 5.45703125 43.53125 C4.58433594 42.6959375 3.71164062 41.860625 2.8125 41 C2.01457031 40.21625 1.21664062 39.4325 0.39453125 38.625 C-1.84648832 36.80430786 -1.84648832 36.80430786 -4.375 36.8671875 C-8.24370373 38.53671738 -10.83175336 41.19595194 -13.8125 44.125 C-15.0630528 45.32109638 -16.314349 46.51641604 -17.56640625 47.7109375 C-18.45996826 48.57090332 -18.45996826 48.57090332 -19.37158203 49.44824219 C-21.28475531 51.27135004 -23.2493921 53.02350402 -25.25 54.75 C-28.20061765 57.29711438 -31.10698786 59.88752237 -34 62.5 C-37.61676345 65.76390848 -41.26389608 68.98790949 -44.9375 72.1875 C-47.30964429 74.27211164 -49.65556065 76.38428644 -52 78.5 C-55.61676345 81.76390848 -59.26389608 84.98790949 -62.9375 88.1875 C-65.30964429 90.27211164 -67.65556065 92.38428644 -70 94.5 C-73.61676345 97.76390848 -77.26389608 100.98790949 -80.9375 104.1875 C-83.30964429 106.27211164 -85.65556065 108.38428644 -88 110.5 C-91.61676345 113.76390848 -95.26389608 116.98790949 -98.9375 120.1875 C-101.30964429 122.27211164 -103.65556065 124.38428644 -106 126.5 C-109.61676345 129.76390848 -113.26389608 132.98790949 -116.9375 136.1875 C-119.30964429 138.27211164 -121.65556065 140.38428644 -124 142.5 C-127.61676345 145.76390848 -131.26389608 148.98790949 -134.9375 152.1875 C-137.30964429 154.27211164 -139.65556065 156.38428644 -142 158.5 C-145.61676345 161.76390848 -149.26389608 164.98790949 -152.9375 168.1875 C-155.30964429 170.27211164 -157.65556065 172.38428644 -160 174.5 C-181.07916683 193.48414261 -181.07916683 193.48414261 -191.1640625 193.41796875 C-195.63575386 192.75891782 -198.25489985 190.48939844 -201 187 C-202.71475946 184.14784116 -203.31673081 181.94634377 -203.375 178.625 C-203.40335937 177.89539063 -203.43171875 177.16578125 -203.4609375 176.4140625 C-202.23665525 170.00214358 -196.88603971 165.73270568 -192.25 161.5625 C-191.31075684 160.70446777 -191.31075684 160.70446777 -190.35253906 159.82910156 C-186.58366839 156.39628364 -182.78089646 153.00316703 -178.921875 149.671875 C-176.58894926 147.64241927 -174.29488755 145.572353 -172 143.5 C-169.01937279 140.81016569 -166.02754767 138.13689636 -163 135.5 C-158.28298716 131.38918961 -153.64361111 127.19332155 -149 123 C-143.72014424 118.23213025 -138.42708194 113.48487782 -133.0625 108.8125 C-130.69035571 106.72788836 -128.34443935 104.61571356 -126 102.5 C-122.38323655 99.23609152 -118.73610392 96.01209051 -115.0625 92.8125 C-112.69035571 90.72788836 -110.34443935 88.61571356 -108 86.5 C-104.38323655 83.23609152 -100.73610392 80.01209051 -97.0625 76.8125 C-94.69035571 74.72788836 -92.34443935 72.61571356 -90 70.5 C-86.37976277 67.23295665 -82.73016435 64.00479224 -79.05078125 60.8046875 C-76.73911203 58.77041859 -74.4646857 56.6977769 -72.1875 54.625 C-68.81059018 51.57141133 -65.36782868 48.65570795 -61.8125 45.8125 C-55.74679782 40.90996514 -50.11835023 35.57741963 -44.4453125 30.23046875 C-41.32224078 27.28967421 -38.13727908 24.43600823 -34.88671875 21.63671875 C-32.56341213 19.62126228 -30.28251535 17.56151538 -28 15.5 C-26.33358753 13.99971761 -24.66693061 12.49970668 -23 11 C-22.27296875 10.34386719 -21.5459375 9.68773437 -20.796875 9.01171875 C-8.84845906 -1.63696493 -8.84845906 -1.63696493 0 0 Z " fill="#E20159" transform="translate(316,158)"/>
<path d="M0 0 C2.46563862 2.16586493 4.78194706 4.40657988 7.0703125 6.7578125 C7.69164062 7.34691406 8.31296875 7.93601562 8.953125 8.54296875 C20.72395265 20.55132432 25.63204502 38.17158874 25.49047852 54.5793457 C24.79010211 73.18519162 17.32152819 89.95821629 3.83203125 102.90625 C-10.69564081 115.31777998 -28.61646502 120.79709801 -47.61328125 119.5078125 C-66.47679978 117.19377737 -82.57280763 108.43698929 -94.56640625 93.60546875 C-105.81137538 78.36515242 -109.52970856 60.83001085 -107.5390625 42.078125 C-104.70204495 24.87415962 -95.72386636 9.22226704 -81.7578125 -1.359375 C-56.78036289 -17.98800858 -24.14721317 -18.48066715 0 0 Z " fill="#FFDC53" transform="translate(486.9296875,13.2421875)"/>
<path d="M0 0 C1.45056925 -0.00269901 2.90113673 -0.00658482 4.35169983 -0.01159668 C7.3836499 -0.01747452 10.41512671 -0.00898629 13.44702148 0.00976562 C17.31499721 0.03253457 21.18186126 0.01943554 25.0497961 -0.00452423 C28.04317957 -0.01904673 31.03630381 -0.01434664 34.02969551 -0.00401306 C35.45491228 -0.00136246 36.88015332 -0.00455631 38.30534172 -0.01393127 C53.9828844 -0.09443399 53.9828844 -0.09443399 59.16015625 4.53125 C64.35648011 10.12755982 63.70122504 15.99584118 63.61425781 23.32958984 C63.61484192 24.61793732 63.61542603 25.90628479 63.61602783 27.2336731 C63.61717247 30.75409188 63.59370464 34.27396217 63.565732 37.79425383 C63.54067606 41.47776709 63.53837306 45.16129382 63.53363037 48.84487915 C63.52121284 55.81466257 63.48840802 62.78419413 63.44823241 69.75386679 C63.39510294 79.17590751 63.37355933 88.59801741 63.35022354 98.02017021 C63.31264551 112.85738535 63.232947 127.69406907 63.16015625 142.53125 C33.79015625 142.53125 4.42015625 142.53125 -25.83984375 142.53125 C-26.00105589 109.67084277 -26.00105589 109.67084277 -26.03515625 95.90234375 C-26.05889225 86.39493176 -26.08679825 76.88766155 -26.14160156 67.38037109 C-26.1814953 60.45628999 -26.20728269 53.53232389 -26.21619773 46.60813105 C-26.22140825 42.94243991 -26.23363681 39.27707776 -26.26276398 35.61149216 C-26.29503181 31.51737684 -26.29580155 27.42383193 -26.29394531 23.32958984 C-26.30832642 22.11686401 -26.32270752 20.90413818 -26.33752441 19.65466309 C-26.30638449 13.31803109 -26.20050298 9.29475902 -21.83984375 4.53125 C-15.37155461 -0.83539903 -8.06104137 -0.0529389 0 0 Z " fill="#A34F3E" transform="translate(213.83984375,339.46875)"/>
<path d="M0 0 C0.75870392 -0.00861557 1.51740784 -0.01723114 2.29910278 -0.02610779 C4.78772867 -0.0486663 7.2752191 -0.0420479 9.76391602 -0.03295898 C11.50594921 -0.03819926 13.24797957 -0.04447721 14.99000549 -0.05174255 C18.63393544 -0.0621282 22.27747443 -0.05761213 25.92138672 -0.04296875 C30.57637997 -0.02578753 35.23013807 -0.049277 39.88499355 -0.08445835 C43.48057637 -0.10648678 47.07586615 -0.10497771 50.67149544 -0.09669304 C52.38699765 -0.09587642 54.102522 -0.10268423 55.81796074 -0.11746407 C71.87068322 -0.23457746 71.87068322 -0.23457746 77.5660553 3.7782135 C82.14810839 9.08941322 83.67749049 13.53259695 83.58203125 20.48486328 C83.59013573 21.62773804 83.59013573 21.62773804 83.59840393 22.79370117 C83.61082924 25.2919903 83.59444418 27.78911301 83.57641602 30.28735352 C83.57657113 32.03417521 83.57806222 33.78099725 83.58082581 35.52781677 C83.58220696 39.18015853 83.56969819 42.83210624 83.546875 46.484375 C83.51847004 51.15724534 83.52123717 55.82946248 83.53396511 60.50238132 C83.54093137 64.10643559 83.53312256 67.71033982 83.52070808 71.31437492 C83.51620427 73.03709271 83.51584741 74.75982666 83.51977348 76.48254585 C83.52269559 78.89250659 83.50613266 81.30157771 83.484375 83.71142578 C83.48887665 84.41756516 83.4933783 85.12370453 83.49801636 85.85124207 C83.41906277 91.13507169 82.17840955 95.23320053 78.58032227 99.17797852 C73.47998573 103.14933431 69.86171096 103.68481148 63.58300781 103.69458008 C62.44100922 103.70202744 62.44100922 103.70202744 61.27593994 103.70962524 C58.75629778 103.72423444 56.23671859 103.73104706 53.71704102 103.73657227 C51.96450295 103.74232508 50.21196491 103.7480828 48.45942688 103.75384521 C44.78333239 103.7643519 41.10725974 103.77019663 37.43115234 103.77368164 C32.72685362 103.77916332 28.02284477 103.80318572 23.31863689 103.83165359 C19.69746566 103.85030294 16.0763639 103.85548681 12.4551487 103.85701752 C10.7212446 103.86003978 8.9873416 103.86805392 7.25348473 103.8812027 C4.8240408 103.89831018 2.39530049 103.89637162 -0.03417969 103.88989258 C-0.74660324 103.89910736 -1.45902679 103.90832214 -2.19303894 103.91781616 C-6.83415194 103.87915944 -9.97335766 102.96293858 -13.91967773 100.53344727 C-18.86325778 95.17790221 -20.21934671 91.15844225 -20.22607422 83.9543457 C-20.23439774 83.19607986 -20.24272125 82.43781403 -20.251297 81.65657043 C-20.27537379 79.15193529 -20.28416721 76.64756085 -20.29077148 74.14282227 C-20.29974125 72.39650394 -20.30886316 70.6501864 -20.31813049 68.90386963 C-20.3346179 65.24212784 -20.34231985 61.58047743 -20.34521484 57.91870117 C-20.35059119 53.24016803 -20.38824082 48.56250137 -20.43395901 43.88421249 C-20.46379436 40.27580683 -20.47093984 36.66760792 -20.47194099 33.05908966 C-20.47613228 31.3351877 -20.48852262 29.6112845 -20.50945854 27.88750458 C-20.69015328 11.71967625 -20.69015328 11.71967625 -16.67738342 6.04400635 C-11.37582634 1.48788796 -6.93099242 -0.06452576 0 0 Z " fill="#A4503F" transform="translate(348.919677734375,339.466552734375)"/>
<path d="M0 0 C0.33 11.88 0.66 23.76 1 36 C-1.475 37.485 -1.475 37.485 -4 39 C-5.63097574 40.2949331 -5.63097574 40.2949331 -7.05078125 41.671875 C-7.58018311 42.16776123 -8.10958496 42.66364746 -8.6550293 43.17456055 C-9.20199463 43.69445557 -9.74895996 44.21435059 -10.3125 44.75 C-11.47063844 45.83539962 -12.6294896 46.92003925 -13.7890625 48.00390625 C-14.34368164 48.52355957 -14.89830078 49.04321289 -15.46972656 49.57861328 C-17.94323103 51.87611536 -20.49041439 54.0843375 -23.04296875 56.29296875 C-25.3855915 58.33633431 -27.69273422 60.41680859 -30 62.5 C-33.61676345 65.76390848 -37.26389608 68.98790949 -40.9375 72.1875 C-43.30964429 74.27211164 -45.65556065 76.38428644 -48 78.5 C-51.61676345 81.76390848 -55.26389608 84.98790949 -58.9375 88.1875 C-61.30964429 90.27211164 -63.65556065 92.38428644 -66 94.5 C-69.61676345 97.76390848 -73.26389608 100.98790949 -76.9375 104.1875 C-79.30964429 106.27211164 -81.65556065 108.38428644 -84 110.5 C-87.61676345 113.76390848 -91.26389608 116.98790949 -94.9375 120.1875 C-97.30964429 122.27211164 -99.65556065 124.38428644 -102 126.5 C-105.61676345 129.76390848 -109.26389608 132.98790949 -112.9375 136.1875 C-115.30964429 138.27211164 -117.65556065 140.38428644 -120 142.5 C-123.61676345 145.76390848 -127.26389608 148.98790949 -130.9375 152.1875 C-133.30964429 154.27211164 -135.65556065 156.38428644 -138 158.5 C-141.61676345 161.76390848 -145.26389608 164.98790949 -148.9375 168.1875 C-151.30964429 170.27211164 -153.65556065 172.38428644 -156 174.5 C-177.07916683 193.48414261 -177.07916683 193.48414261 -187.1640625 193.41796875 C-191.63575386 192.75891782 -194.25489985 190.48939844 -197 187 C-198.71475946 184.14784116 -199.31673081 181.94634377 -199.375 178.625 C-199.40335937 177.89539063 -199.43171875 177.16578125 -199.4609375 176.4140625 C-198.23665525 170.00214358 -192.88603971 165.73270568 -188.25 161.5625 C-187.31075684 160.70446777 -187.31075684 160.70446777 -186.35253906 159.82910156 C-182.58366839 156.39628364 -178.78089646 153.00316703 -174.921875 149.671875 C-172.58894926 147.64241927 -170.29488755 145.572353 -168 143.5 C-165.01937279 140.81016569 -162.02754767 138.13689636 -159 135.5 C-154.28298716 131.38918961 -149.64361111 127.19332155 -145 123 C-139.72014424 118.23213025 -134.42708194 113.48487782 -129.0625 108.8125 C-126.69035571 106.72788836 -124.34443935 104.61571356 -122 102.5 C-118.38323655 99.23609152 -114.73610392 96.01209051 -111.0625 92.8125 C-108.69035571 90.72788836 -106.34443935 88.61571356 -104 86.5 C-100.38323655 83.23609152 -96.73610392 80.01209051 -93.0625 76.8125 C-90.69035571 74.72788836 -88.34443935 72.61571356 -86 70.5 C-82.37976277 67.23295665 -78.73016435 64.00479224 -75.05078125 60.8046875 C-72.73911203 58.77041859 -70.4646857 56.6977769 -68.1875 54.625 C-64.81059018 51.57141133 -61.36782868 48.65570795 -57.8125 45.8125 C-51.74679782 40.90996514 -46.11835023 35.57741963 -40.4453125 30.23046875 C-37.32224078 27.28967421 -34.13727908 24.43600823 -30.88671875 21.63671875 C-28.56341213 19.62126228 -26.28251535 17.56151538 -24 15.5 C-22.33358753 13.99971761 -20.66693061 12.49970668 -19 11 C-18.27296875 10.34386719 -17.5459375 9.68773437 -16.796875 9.01171875 C-6.68522484 0 -6.68522484 0 0 0 Z " fill="#FE415C" transform="translate(312,158)"/>
<path d="M0 0 C1.55064704 -0.02735521 1.55064704 -0.02735521 3.13262028 -0.05526304 C5.09970534 -0.09029385 7.06660387 -0.14077898 9.03278166 -0.21003008 C15.13935333 -0.29482855 19.66214315 0.64758575 24.74774361 4.14622498 C28.33182122 7.81990453 29.01790063 10.72859814 29.18524361 15.70872498 C28.96127069 21.40844952 27.50070586 24.17414244 23.74774361 28.39622498 C20.79663051 30.97844893 18.31106222 31.27119359 14.53672695 31.2692728 C13.24239427 31.27225938 13.24239427 31.27225938 11.92191344 31.27530628 C10.49926131 31.27093702 10.49926131 31.27093702 9.04786873 31.26647949 C8.04075157 31.26733392 7.03363442 31.26818834 5.99599856 31.26906866 C2.60569327 31.27072185 -0.78456305 31.26520467 -4.17486382 31.25975037 C-6.59892081 31.25946843 -9.02297789 31.25962635 -11.44703484 31.26019287 C-16.67390928 31.26042093 -21.90077255 31.257576 -27.12764359 31.25195503 C-34.68485241 31.2438333 -42.2420552 31.24122412 -49.79926793 31.23996704 C-62.05988664 31.23777758 -74.32049871 31.23112036 -86.58111382 31.22166443 C-98.49224629 31.21248757 -110.40337696 31.20540807 -122.31451225 31.20115662 C-123.04852499 31.20089389 -123.78253774 31.20063117 -124.53879329 31.20036048 C-128.2210629 31.19905546 -131.90333253 31.19779175 -135.58560216 31.19654858 C-166.14115848 31.18617927 -196.69670616 31.16828891 -227.25225639 31.14622498 C-227.25225639 21.24622498 -227.25225639 11.34622498 -227.25225639 1.14622498 C-198.83466399 1.01522198 -170.41706906 0.88478198 -141.99947071 0.75507355 C-128.80256266 0.69482405 -115.60565555 0.63438107 -102.40875053 0.57347107 C-90.89669377 0.52033795 -79.38463535 0.46757961 -67.87257487 0.41525793 C-61.78583085 0.38758128 -55.69908778 0.35972606 -49.61234665 0.3314209 C-43.86438382 0.3046971 -38.11641888 0.27848052 -32.36845207 0.25262642 C-30.27695 0.24313435 -28.1854487 0.23346869 -26.09394836 0.22360039 C-25.11877195 0.21900873 -24.14359554 0.21441708 -23.13886833 0.20968628 C-22.18346377 0.20502602 -21.22805922 0.20036575 -20.24370301 0.19556427 C-18.37375217 0.18806263 -16.5037882 0.18327613 -14.63382328 0.18138885 C-9.75324133 0.17508976 -4.87920567 0.12037025 0 0 Z " fill="#9DBC29" transform="translate(483.2522563934326,480.85377502441406)"/>
<path d="M0 0 C18.11394423 0 32.77487856 5.04035186 45.8671875 17.80859375 C46.57101562 18.53175781 47.27484375 19.25492188 48 20 C48.62132812 20.58910156 49.24265625 21.17820312 49.8828125 21.78515625 C61.65364015 33.79351182 66.56173252 51.41377624 66.42016602 67.8215332 C65.71978961 86.42737912 58.25121569 103.20040379 44.76171875 116.1484375 C31.52506874 127.45699937 17.29407217 132 0 132 C0 88.44 0 44.88 0 0 Z " fill="#FFB453" transform="translate(446,0)"/>
<path d="M0 0 C3.5677811 2.35149209 5.84221079 4.99692157 7.75 8.8125 C7.91591219 11.42730216 8.02291201 14.01818965 8.08569336 16.63598633 C8.10832748 17.44445007 8.13096161 18.25291382 8.15428162 19.08587646 C8.3520013 26.5730479 8.46706735 34.06191332 8.55750179 41.55107594 C8.61917591 46.57783051 8.70743342 51.60087732 8.86108398 56.62573242 C9.00921848 61.49140626 9.08694835 66.35371662 9.11721992 71.2215023 C9.1403904 73.06730531 9.18773078 74.9129841 9.26078606 76.75748634 C9.83290134 91.90134908 9.83290134 91.90134908 4.69168091 97.79159546 C1.79192751 100.66540975 -1.31330273 103.18590128 -4.60612297 105.59386253 C-6.74154254 107.17688988 -8.6801068 108.94073104 -10.625 110.75 C-14.34838066 113.9737062 -18.26609234 116.91992875 -22.25 119.8125 C-22.14816406 118.68714844 -22.04632813 117.56179687 -21.94140625 116.40234375 C-21.62465905 109.27943264 -21.60261292 103.20153309 -26.41015625 97.55859375 C-29.5999954 94.28442739 -33.01912365 91.28203189 -36.50634766 88.32958984 C-38.56504365 86.53839173 -40.32792503 84.60416964 -42.0625 82.5 C-45.48060168 78.43210295 -49.28613698 74.78999767 -53.11328125 71.109375 C-57.37005191 66.5335411 -57.80141342 62.70476967 -57.703125 56.578125 C-56.98048594 52.16753488 -54.70385856 49.52964102 -51.25 46.8125 C-47.41198051 44.53415377 -43.63358506 44.08710247 -39.25 44.8125 C-34.52528482 46.83390725 -31.4240568 49.30706252 -27.875 53 C-26.56402344 54.35158203 -26.56402344 54.35158203 -25.2265625 55.73046875 C-24.57429688 56.41753906 -23.92203125 57.10460937 -23.25 57.8125 C-23.24635437 57.22669662 -23.24270874 56.64089325 -23.23895264 56.03733826 C-23.19702851 49.92089666 -23.12761371 43.80519853 -23.04248047 37.68920898 C-23.01431589 35.40901132 -22.993079 33.12871684 -22.97900391 30.84838867 C-22.95751252 27.56378782 -22.91082828 24.28034545 -22.859375 20.99609375 C-22.85814636 19.98228134 -22.85691772 18.96846893 -22.85565186 17.92393494 C-22.72769418 11.69129153 -21.88742044 7.91934194 -18.25 2.8125 C-13.03108336 -2.1454708 -6.565322 -2.39886766 0 0 Z " fill="#A34F3D" transform="translate(248.25,109.1875)"/>
<path d="M0 0 C5.08029742 3.34837785 7.17693738 7.02688297 8.75 12.8125 C8.9233781 15.49465762 9.00390567 18.06728137 8.97705078 20.74560547 C8.97734283 21.5170137 8.97763489 22.28842194 8.97793579 23.08320618 C8.97655011 25.6154838 8.96102512 28.14746172 8.9453125 30.6796875 C8.94157966 32.44230997 8.93873396 34.20493452 8.93673706 35.96755981 C8.92912198 40.59372749 8.90949182 45.21976843 8.8873291 49.84588623 C8.86682481 54.57171922 8.85772556 59.2975728 8.84765625 64.0234375 C8.82624386 73.28651384 8.79213366 82.54949636 8.75 91.8125 C4.88867122 90.01223019 2.07030185 87.53152642 -1 84.625 C-2.070993 83.62693675 -3.14260823 82.62954077 -4.21484375 81.6328125 C-4.7341748 81.14844727 -5.25350586 80.66408203 -5.78857422 80.16503906 C-11.07463832 75.09306886 -11.07463832 75.09306886 -16.94873047 70.782547 C-20.15382477 68.60285236 -21.97575161 66.96039269 -22.89530945 63.11149597 C-23.12742665 59.71187501 -23.14133538 56.37574653 -23.07421875 52.96875 C-23.07380081 51.72629517 -23.07338287 50.48384033 -23.07295227 49.20373535 C-23.06244306 45.91059053 -23.01951832 42.61982852 -22.96380615 39.32720947 C-22.93751945 37.31398996 -22.93267077 35.30194929 -22.9362793 33.28857422 C-22.9431779 29.41060724 -22.9208694 25.53405411 -22.88671875 21.65625 C-22.88540451 20.45923462 -22.88409027 19.26221924 -22.88273621 18.02893066 C-22.75685033 11.69636189 -22.56650617 7.60157904 -18.25 2.8125 C-12.82979006 -2.01406789 -6.72065918 -2.45562547 0 0 Z " fill="#FE3F5B" transform="translate(454.25,194.1875)"/>
<path d="M0 0 C2.97 0.33 5.94 0.66 9 1 C10.9778506 1.08332952 12.95790257 1.13055287 14.9375 1.125 C16.31228516 1.12886719 16.31228516 1.12886719 17.71484375 1.1328125 C22.15567136 0.95327845 26.57760175 0.44223982 31 0 C31 21.45 31 42.9 31 65 C20.77 65 10.54 65 0 65 C0 43.55 0 22.1 0 0 Z " fill="#A5513F" transform="translate(69,417)"/>
<path d="M0 0 C14.19 0 28.38 0 43 0 C43 14.19 43 28.38 43 43 C28.81 43 14.62 43 0 43 C0 28.81 0 14.62 0 0 Z " fill="#C7FAF9" transform="translate(359,370)"/>
<path d="M0 0 C6.164452 1.02740867 7.71398947 1.8113988 12 6 C14.55871023 9.71334995 14.35099677 13.73164051 14.41748047 18.08227539 C14.43704803 18.89424377 14.4566156 19.70621216 14.47677612 20.54278564 C14.536554 23.2276766 14.57942471 25.91236858 14.6171875 28.59765625 C14.63033115 29.5180261 14.64347481 30.43839596 14.65701675 31.38665581 C14.72215904 36.26218392 14.77106184 41.13762571 14.81005859 46.01342773 C14.84562399 50.03491569 14.91514648 54.05358156 15.01513672 58.07397461 C15.13604412 62.94191949 15.19707295 67.8072592 15.21640396 72.67663383 C15.23343876 74.5239237 15.27089554 76.37115083 15.3298912 78.21757698 C15.78736347 93.3551672 15.78736347 93.3551672 11.31451416 98.6545105 C8.45096289 101.52594324 5.44592637 103.86572989 2 106 C1.34 106 0.68 106 0 106 C0 71.02 0 36.04 0 0 Z " fill="#873F2E" transform="translate(242,108)"/>
<path d="M0 0 C5.01339669 0.55704408 10.02438378 1.17073063 15 2 C15 22.79 15 43.58 15 65 C10.05 65 5.1 65 0 65 C0 43.55 0 22.1 0 0 Z " fill="#C86E58" transform="translate(69,417)"/>
</svg>
